<svg width="113" height="112" viewBox="0 0 113 112" fill="none" xmlns="http://www.w3.org/2000/svg">
<path d="M1.18774 56C1.18774 25.7742 25.9619 1 56.1877 1C86.4132 1 111.188 25.7742 111.188 56C111.188 70.9858 104.926 84.5822 95.1499 94.5033L56.1877 107.663L17.2256 94.5033C7.44973 84.5821 1.18774 70.9857 1.18774 56ZM32.219 56C32.219 69.2179 42.9698 79.9688 56.1877 79.9688C69.4057 79.9688 80.1565 69.2179 80.1565 56C80.1565 42.7821 69.4057 32.0312 56.1877 32.0312C42.9698 32.0312 32.219 42.7821 32.219 56Z" fill="url(#paint0_linear_403_1202)" stroke="url(#paint1_linear_403_1202)" stroke-width="2"/>
<path d="M1.18774 56C1.18774 25.7742 25.9619 1.00003 56.1877 1.00003C86.4132 1.00003 111.188 25.7742 111.188 56C111.188 70.9858 104.926 84.5822 95.1499 94.5034L56.1877 107.663L17.2256 94.5034C7.44973 84.5822 1.18774 70.9858 1.18774 56ZM32.219 56C32.219 69.2179 42.9698 79.9688 56.1877 79.9688C69.4057 79.9688 80.1565 69.2179 80.1565 56C80.1565 42.7821 69.4057 32.0313 56.1877 32.0313C42.9698 32.0313 32.219 42.7821 32.219 56Z" fill="url(#paint2_linear_403_1202)" stroke="url(#paint3_linear_403_1202)" stroke-width="2"/>
<path d="M56.1877 95.375C46.344 95.375 46.344 88.8125 36.5002 88.8125C26.6565 88.8125 26.6565 95.4406 16.6813 95.375C26.7877 105.481 40.7659 112 56.1877 112C71.6096 112 85.5875 105.481 95.6942 95.375C85.719 95.4406 85.7846 88.8125 75.8752 88.8125C66.0315 88.8125 66.0315 95.375 56.1877 95.375ZM25.6951 66.8051C24.4134 65.5235 22.3368 65.5235 21.0552 66.8051C19.7735 68.0868 19.7735 70.1634 21.0552 71.445L27.6177 78.0075C28.8996 79.2892 30.9759 79.2892 32.2576 78.0075C33.5392 76.7259 33.5392 74.6493 32.2576 73.3676L25.6951 66.8051ZM56.1877 26.4687H69.3127C71.1264 26.4687 72.594 25.0011 72.594 23.1875C72.594 21.3738 71.1264 19.9062 69.3127 19.9062H56.1877C54.3741 19.9062 52.9065 21.3738 52.9065 23.1875C52.9065 25.0011 54.3741 26.4687 56.1877 26.4687ZM84.7576 78.0073L91.3201 71.4448C92.6017 70.1631 92.6017 68.0866 91.3201 66.8049C90.0384 65.5232 87.9618 65.5232 86.6802 66.8049L80.1177 73.3674C78.836 74.6491 78.836 76.7256 80.1177 78.0073C81.3996 79.2892 83.4759 79.2892 84.7576 78.0073ZM86.6804 45.1948C87.9623 46.4765 90.0386 46.4765 91.3203 45.1948C92.602 43.9132 92.602 41.8366 91.3203 40.5549L84.7578 33.9924C83.4761 32.7107 81.3996 32.7107 80.1179 33.9924C78.8362 35.2741 78.8362 37.3507 80.1179 38.6323L86.6804 45.1948ZM25.6951 45.1948L32.2576 38.6323C33.5392 37.3507 33.5392 35.2741 32.2576 33.9924C30.9759 32.7107 28.8993 32.7107 27.6177 33.9924L21.0552 40.5549C19.7735 41.8366 19.7735 43.9132 21.0552 45.1948C22.3371 46.4767 24.4134 46.4767 25.6951 45.1948ZM43.063 26.3125C44.8751 26.3125 46.3442 24.8434 46.3442 23.0313C46.3442 21.2192 44.8751 19.75 43.063 19.75C41.2508 19.75 39.7817 21.2192 39.7817 23.0313C39.7817 24.8434 41.2506 26.3125 43.063 26.3125ZM20.0942 55.8438C20.0942 54.0317 18.6251 52.5625 16.813 52.5625C15.0008 52.5625 13.5317 54.0317 13.5317 55.8438C13.5317 57.6559 15.0008 59.125 16.813 59.125C18.6251 59.125 20.0942 57.6559 20.0942 55.8438ZM95.563 52.5625C93.7508 52.5625 92.2817 54.0317 92.2817 55.8438C92.2817 57.6559 93.7508 59.125 95.563 59.125C97.3751 59.125 98.8442 57.6559 98.8442 55.8438C98.8442 54.0317 97.3751 52.5625 95.563 52.5625Z" fill="white"/>
<defs>
<linearGradient id="paint0_linear_403_1202" x1="56.1877" y1="-41.5486" x2="56.1877" y2="145.074" gradientUnits="userSpaceOnUse">
<stop stop-color="#FFAE00"/>
<stop offset="1" stop-color="#FFCD1E"/>
</linearGradient>
<linearGradient id="paint1_linear_403_1202" x1="56.1877" y1="0" x2="56.1877" y2="108.719" gradientUnits="userSpaceOnUse">
<stop stop-color="#FF9F00"/>
<stop offset="1" stop-color="#FFB800"/>
</linearGradient>
<linearGradient id="paint2_linear_403_1202" x1="56.1877" y1="-41.5485" x2="56.1877" y2="145.074" gradientUnits="userSpaceOnUse">
<stop offset="0.630208" stop-color="#FFAE00"/>
<stop offset="1" stop-color="#FFCD1E"/>
</linearGradient>
<linearGradient id="paint3_linear_403_1202" x1="56.1877" y1="3.05176e-05" x2="56.1877" y2="108.719" gradientUnits="userSpaceOnUse">
<stop stop-color="#FF9F00"/>
<stop offset="1" stop-color="#FFB800"/>
</linearGradient>
</defs>
</svg>
