<svg width="73" height="112" viewBox="0 0 73 112" fill="none" xmlns="http://www.w3.org/2000/svg">
<path d="M2.41119 110.826L2.40732 110.825C1.5576 110.473 1 109.64 1 108.717V3.28125C1 2.01988 2.01988 1 3.28125 1H68.9062C70.1676 1 71.1875 2.01982 71.1877 3.28125C71.1877 3.28129 71.1877 3.28133 71.1877 3.28137V108.718C71.1877 109.64 70.6301 110.473 69.7804 110.825L69.775 110.827C68.9531 111.173 67.9582 110.995 67.2935 110.33C64.5599 107.597 60.1277 107.597 57.3942 110.33C56.5031 111.222 55.0596 111.222 54.1685 110.33C51.4349 107.597 47.0027 107.597 44.2692 110.33C43.3781 111.222 41.9346 111.222 41.0435 110.33C38.3099 107.597 33.8778 107.597 31.1442 110.33C30.2531 111.222 28.8096 111.222 27.9185 110.33C25.1849 107.597 20.7527 107.597 18.0192 110.33C17.1281 111.222 15.6846 111.222 14.7935 110.33C12.06 107.597 7.62781 107.597 4.89421 110.33C4.23759 110.987 3.25263 111.178 2.41119 110.826Z" fill="url(#paint0_linear_403_974)" stroke="url(#paint1_linear_403_974)" stroke-width="2"/>
<path d="M36.0941 35.3029C34.2868 35.3029 32.8128 33.832 32.8128 32.0216C32.8128 30.2113 34.2868 28.7404 36.0941 28.7404C37.9014 28.7404 39.3753 30.2113 39.3753 32.0216C39.3753 33.8353 40.8429 35.3029 42.6566 35.3029C44.4702 35.3029 45.9378 33.8353 45.9378 32.0216C45.9378 27.7494 43.1868 24.1414 39.3753 22.7823V18.8966C39.3753 17.083 37.9077 15.6154 36.0941 15.6154C34.2804 15.6154 32.8128 17.083 32.8128 18.8966V22.7823C29.0013 24.1414 26.2503 27.7494 26.2503 32.0216C26.2503 37.4497 30.666 41.8654 36.0941 41.8654C37.9014 41.8654 39.3753 43.3363 39.3753 45.1466C39.3753 46.957 37.9014 48.4279 36.0941 48.4279C34.2868 48.4279 32.8128 46.957 32.8128 45.1466C32.8128 43.333 31.3452 41.8654 29.5316 41.8654C27.7179 41.8654 26.2503 43.333 26.2503 45.1466C26.2503 49.4188 29.0013 53.0269 32.8128 54.386V58.2716C32.8128 60.0853 34.2804 61.5529 36.0941 61.5529C37.9077 61.5529 39.3753 60.0853 39.3753 58.2716V54.386C43.1868 53.0271 45.9378 49.4188 45.9378 45.1466C45.9378 39.7186 41.5224 35.3029 36.0941 35.3029ZM36.0941 68.1154H16.4066C14.5929 68.1154 13.1253 69.583 13.1253 71.3966C13.1253 73.2103 14.5929 74.6779 16.4066 74.6779H36.0941C37.9077 74.6779 39.3753 73.2103 39.3753 71.3966C39.3753 69.583 37.9077 68.1154 36.0941 68.1154ZM36.0941 81.2404H16.4066C14.5929 81.2404 13.1253 82.708 13.1253 84.5216C13.1253 86.3353 14.5929 87.8029 16.4066 87.8029H36.0941C37.9077 87.8029 39.3753 86.3353 39.3753 84.5216C39.3753 82.708 37.9077 81.2404 36.0941 81.2404ZM49.2191 74.6779H55.7816C57.5952 74.6779 59.0628 73.2103 59.0628 71.3966C59.0628 69.583 57.5952 68.1154 55.7816 68.1154H49.2191C47.4054 68.1154 45.9378 69.583 45.9378 71.3966C45.9378 73.2103 47.4054 74.6779 49.2191 74.6779ZM55.7816 81.2404H49.2191C47.4054 81.2404 45.9378 82.708 45.9378 84.5216C45.9378 86.3353 47.4054 87.8029 49.2191 87.8029H55.7816C57.5952 87.8029 59.0628 86.3353 59.0628 84.5216C59.0628 82.708 57.5952 81.2404 55.7816 81.2404Z" fill="white"/>
<defs>
<linearGradient id="paint0_linear_403_974" x1="36.0939" y1="-42.8026" x2="36.0939" y2="149.452" gradientUnits="userSpaceOnUse">
<stop offset="0.630208" stop-color="#FFAE00"/>
<stop offset="1" stop-color="#FFCD1E"/>
</linearGradient>
<linearGradient id="paint1_linear_403_974" x1="36.0939" y1="0" x2="36.0939" y2="112" gradientUnits="userSpaceOnUse">
<stop stop-color="#FF9F00"/>
<stop offset="1" stop-color="#FFB800"/>
</linearGradient>
</defs>
</svg>
